PathFileType	4	(X/Y/Z)	Run_200 01
DataRate	CameraRate	NumFrames	NumMarkers	Units	OrigDataRate	OrigDataStartFrame	OrigNumFrames
120	120	6	42	mm	120	124	128
Frame#	Time	LASI			RASI			LPSI			RPSI			RTH1			RTH2			RTH3			LTH1			LTH2			LTH3			RTB2			RTB3			LTB1			LTB2			LTB3			RCAL			RTOE			RMT5			LCAL			LTOE			LMT5			LACR			RACR			CLAV			C7			RUA1			RUA2			RUA3			RLEL			RMEL			LUA1			LUA2			LUA3			LLEL			LMEL			RFAsuperior			RFAradius			RFAulna			LFAsuperior			LFAradius			LFAulna			RTB1			
		X1	Y1	Z1	X2	Y2	Z2	X3	Y3	Z3	X4	Y4	Z4	X5	Y5	Z5	X6	Y6	Z6	X7	Y7	Z7	X8	Y8	Z8	X9	Y9	Z9	X10	Y10	Z10	X11	Y11	Z11	X12	Y12	Z12	X13	Y13	Z13	X14	Y14	Z14	X15	Y15	Z15	X16	Y16	Z16	X17	Y17	Z17	X18	Y18	Z18	X19	Y19	Z19	X20	Y20	Z20	X21	Y21	Z21	X22	Y22	Z22	X23	Y23	Z23	X24	Y24	Z24	X25	Y25	Z25	X26	Y26	Z26	X27	Y27	Z27	X28	Y28	Z28	X29	Y29	Z29	X30	Y30	Z30	X31	Y31	Z31	X32	Y32	Z32	X33	Y33	Z33	X34	Y34	Z34	X35	Y35	Z35	X36	Y36	Z36	X37	Y37	Z37	X38	Y38	Z38	X39	Y39	Z39	X40	Y40	Z40	X41	Y41	Z41	X42	Y42	Z42	

123	1.25	494.97737	1045.870538	-418.862235	490.02895	1055.452836	-184.260847	327.951719	1072.516913	-357.908988	323.820999	1079.22398	-269.713655	422.526646	858.488975	-140.230786	467.469805	729.536294	-155.558076	367.581033	620.272157	-159.84894	481.328846	892.6118310000001	-468.055162	560.376548	793.734543	-449.222231	519.252783	644.774018	-426.821927	242.393722	389.730877	-167.690209	184.696991	291.198001	-237.36342	599.499657	418.787701	-342.688101	557.548221	309.489807	-389.216669	578.652424	231.175899	-311.807144	27.487412	294.420025	-251.992514	122.613393	98.284322	-274.041279	72.49773999999999	103.18795	-188.205043	473.10731	95.56912699999999	-303.753981	689.0263619999999	121.757939	-300.494828	666.608164	83.825321	-384.022529	436.19562	1492.801887	-476.409208	478.332743	1474.885581	-101.682864	549.6359189999999	1453.740895	-278.594155	429.369402	1548.223181	-284.35654	471.762226	1370.955864	-33.917615	500.848341	1306.381449	-31.026939	411.612561	1285.074301	24.712145	456.296923	1207.065552	53.732073	388.841915	1174.106998	0.961612	384.748349	1445.277201	-528.490923	306.556653	1406.853488	-507.690211	335.286022	1370.884172	-571.4950720000001	269.099415	1285.69305	-613.394812	224.543819	1255.359256	-539.373973	527.313297	1200.556357	8.979884999999999	628.631142	1190.754809	-122.214252	620.701379	1126.501252	-102.260355	336.485539	1263.88262	-607.56146	478.993754	1205.892305	-518.076586	459.970746	1151.926255	-549.052578	320.143237	409.27754	-215.672203	
124	1.258333	494.942749	1042.170411	-419.251176	490.105036	1051.404318	-183.684704	327.733231	1067.495065	-356.703197	323.821245	1074.596433	-268.486511	427.494182	853.625669	-140.034435	475.448035	725.997944	-155.720674	378.757722	614.346851	-157.90654	479.938374	888.194033	-468.565588	557.721583	788.3576870000001	-449.550454	515.723253	639.629766	-425.979342	248.86675	389.40918	-167.101818	186.984368	294.028179	-236.795137	595.007365	413.465328	-341.827229	552.137814	304.269362	-387.745289	574.1104800000001	225.718571	-310.627786	32.009682	305.360316	-252.90221	115.22869	103.674921	-272.890861	64.13502	111.600149	-187.717625	466.624711	93.28778200000001	-301.788894	683.0749049999999	112.8526	-297.315715	659.8843910000001	77.452151	-381.313584	437.52441	1488.193111	-477.897161	477.641933	1471.741277	-102.783214	549.468559	1449.63976	-279.168501	429.171846	1543.984726	-286.044027	469.297037	1368.308705	-34.60014	497.408476	1303.453467	-30.824446	407.393513	1283.369037	23.673914	450.976088	1204.957947	53.787867	383.875718	1172.616729	0.399749	386.660839	1440.475286	-530.554022	308.164581	1401.761602	-510.436523	337.92162	1366.043745	-574.251529	272.193505	1280.705995	-616.595341	227.369056	1249.656477	-542.886026	522.577135	1197.224266	9.96143	625.16005	1184.935743	-120.123809	616.192847	1120.967785	-99.76790699999999	339.765245	1259.578562	-610.42501	482.413721	1203.186691	-520.25183	464.130039	1149.108816	-551.463974	327.562102	405.665485	-214.472073	
125	1.266667	494.916238	1037.727221	-419.764352	490.192304	1046.226066	-182.767313	327.292476	1061.551208	-355.148149	323.968473	1068.965838	-266.993101	432.679314	848.203929	-139.653343	483.742907	721.986499	-155.67461	390.450125	607.8932	-155.876079	478.760576	882.975018	-468.579998	555.135746	782.5553169999999	-448.618758	512.0801290000001	633.770309	-425.16677	256.348177	388.852052	-166.35951	190.260346	297.070438	-236.271385	590.062325	407.201046	-340.64303	546.194614	297.972237	-385.488793	567.949291	219.496318	-308.673617	37.492918	316.03841	-253.882152	109.395419	109.831058	-271.100558	57.745607	121.282668	-186.520515	457.127425	92.881377	-299.539974	674.423682	102.007341	-293.322219	650.055573	70.949949	-378.168231	438.886603	1482.742386	-479.369259	477.009586	1467.942438	-103.887239	549.252207	1444.763921	-279.60208	428.963823	1539.0553	-287.742292	466.838731	1365.032135	-35.264094	493.908768	1299.906058	-30.506123	403.081214	1281.209003	22.698625	445.283561	1202.333376	53.905196	378.56271	1170.675269	-0.154041	388.726296	1434.7625	-532.6226809999999	309.954791	1395.735143	-513.503035	340.758118	1360.357087	-577.128164	275.748585	1274.819857	-620.1967560000001	230.497433	1243.029133	-546.861887	517.48116	1193.274455	11.151278	621.4034370000001	1178.254263	-117.66898	611.326008	1114.611325	-96.835823	343.52221	1254.453991	-613.582776	486.193111	1199.9384	-522.444887	468.829133	1145.655073	-553.986259	335.82608	401.803143	-213.193085	
126	1.275	494.770848	1032.411065	-420.216554	489.987462	1039.970569	-181.545257	326.452707	1054.826203	-353.419317	324.048299	1062.440873	-265.257907	438.038875	842.1781	-139.216991	492.37507	717.413422	-155.364844	402.676662	600.913724	-153.83594	477.651359	876.849678	-468.079823	552.726071	776.328184	-446.548634	508.524627	627.3710160000001	-424.345653	264.731154	388.176133	-165.449195	194.499826	300.372029	-235.71946	584.919229	400.175443	-338.836554	539.747914	290.93427	-382.355687	559.668367	212.952374	-305.619118	43.618528	326.39878	-254.877766	105.622219	116.795833	-268.449138	53.756071	131.959615	-184.542169	444.786693	93.657644	-297.258147	662.946696	91.694765	-289.224592	637.362825	65.73198499999999	-375.194402	440.293317	1476.510577	-480.819159	476.298795	1463.496492	-105.023321	548.9786	1439.18275	-279.99935	428.689314	1533.419464	-289.4849	464.338626	1361.159111	-35.911929	490.195763	1295.632321	-30.448973	398.696228	1278.612868	21.801417	439.276927	1199.244297	54.075104	372.933566	1168.301495	-0.691063	390.965868	1428.194501	-534.6742850000001	311.987957	1388.844008	-516.878239	343.753766	1353.802844	-579.983022	279.755955	1268.118109	-624.1532989999999	233.984191	1235.540919	-551.29259	511.988764	1188.763508	12.455356	617.359434	1170.747206	-114.858287	606.083172	1107.480604	-93.499106	347.761446	1248.585972	-617.0110079999999	490.287546	1196.165419	-524.6405549999999	474.048925	1141.580913	-556.571641	344.776241	397.866627	-211.90694	
127	1.283333	494.254794	1026.200587	-420.441489	489.292563	1032.771252	-180.233466	324.978921	1047.347955	-351.771319	323.684433	1054.986056	-263.368479	443.488576	835.516812	-138.955038	501.264491	712.383927	-154.93546	415.436422	593.486551	-151.982801	476.302225	870.123366	-467.307497	550.630304	769.931119	-444.100521	505.501873	620.920467	-423.590695	273.968866	387.561719	-164.48997	199.762229	303.920752	-235.053051	579.771525	392.9877	-336.396249	532.782881	284.092142	-378.873375	549.138069	206.888622	-301.772731	50.292549	336.410777	-255.74025	104.270182	124.436512	-264.966048	52.476482	143.185782	-181.842763	430.231918	94.63478600000001	-295.341589	649.015902	84.383594	-285.738253	622.52962	62.70176	-372.899726	441.786619	1469.638016	-482.26798	475.420132	1458.515287	-106.152187	548.779626	1432.983847	-280.457859	428.24112	1527.047034	-291.306939	461.717929	1356.699176	-36.554433	486.082993	1290.516847	-31.021055	394.210335	1275.590951	20.948018	432.963654	1195.743788	54.247985	366.936756	1165.530513	-1.232329	393.386591	1420.848907	-536.700344	314.266495	1381.144063	-520.492444	347.015623	1346.386358	-582.858457	284.218466	1260.693505	-628.395212	237.898761	1227.237498	-556.135743	506.070211	1183.762844	13.763039	613.033851	1162.468652	-111.704731	600.438492	1099.631273	-89.806183	352.487484	1242.067761	-620.688222	494.659403	1191.847668	-526.810243	479.744343	1136.930005	-559.151432	354.359194	394.051774	-210.754528	
128	1.291667	493.145858	1019.301552	-420.468932	488.219914	1024.884686	-179.167056	322.688007	1039.078113	-350.326238	322.487272	1046.456522	-261.463405	448.934664	828.37046	-139.024422	510.207966	707.272649	-154.64011	428.658604	585.885146	-150.561545	474.37955	863.567553	-466.632713	548.882802	763.9299109999999	-442.248394	503.508134	615.122988	-423.199884	284.114875	387.190399	-163.676231	206.200541	307.661884	-234.232666	574.666894	386.544195	-333.729093	525.382598	278.6603	-375.996509	537.0234799999999	202.191212	-298.082572	57.710074	346.038052	-256.249925	105.487387	132.476583	-260.93608	54.061206	154.477614	-178.540806	414.40487	95.213932	-294.060247	633.502399	80.90383300000001	-283.294132	606.529443	61.717657	-371.453424	443.441398	1462.370115	-483.764522	474.392182	1453.208498	-107.141756	548.894334	1426.265275	-280.929342	427.581511	1520.057723	-293.215037	458.902764	1351.673182	-37.179747	481.490362	1284.588717	-32.263261	389.558711	1272.171787	20.07877	426.312649	1191.895019	54.360594	360.518336	1162.449111	-1.84538	395.989544	1412.830537	-538.739298	316.759587	1372.677864	-524.232194	350.710106	1338.189901	-585.912596	289.165622	1252.631729	-632.847101	242.305813	1218.188462	-561.299666	499.741919	1178.32194	15.035394	608.442275	1153.484153	-108.212107	594.362132	1091.130815	-85.811677	357.711458	1234.98536	-624.584643	499.309679	1186.947307	-528.900819	485.87431	1131.759671	-561.640185	364.642215	390.578894	-209.943751	
